<svg width="27" height="30" viewBox="0 0 27 30" fill="none" xmlns="http://www.w3.org/2000/svg">
<path d="M8.9 30C8.6 30 8.3 29.9 8.1 29.6C2.7 23.5 1.4 22.1 1.1 21.7C0.4 20.8 0 19.6 0 18.4C0 15.4 2.4 13 5.5 13C6.8 13 8 13.5 9 14.3C10 13.5 11.3 13 12.5 13C15.5 13 18 15.4 18 18.4C18 19.7 17.5 20.9 16.7 21.8L9.7 29.7C9.5 29.9 9.3 30 8.9 30ZM2.9 20.5C3.2 20.9 6.4 24.5 9 27.4L15.2 20.4C15.7 19.9 15.9 19.2 15.9 18.4C15.9 16.6 14.4 15.1 12.6 15.1C11.6 15.1 10.6 15.6 9.9 16.4C9.6 16.7 9.3 16.8 9 16.8C8.7 16.8 8.4 16.6 8.2 16.4C7.5 15.6 6.5 15.1 5.5 15.1C3.7 15.1 2.2 16.6 2.2 18.4C2.1 19.3 2.5 20 2.9 20.5C2.8 20.5 2.8 20.5 2.9 20.5Z" fill="black"/>
<rect x="7" width="20" height="20" rx="10" fill="#7DB54F"/>
<path d="M12.1308 13.26H13.5308V8.42L13.6308 7.83L13.2308 8.3L12.1308 9.09L11.7508 8.58L13.9508 6.88H14.3108V13.26H15.6808V14H12.1308V13.26ZM20.96 8.59C20.96 8.94333 20.8933 9.30667 20.76 9.68C20.6333 10.0467 20.4633 10.4167 20.25 10.79C20.0433 11.1633 19.81 11.53 19.55 11.89C19.29 12.2433 19.03 12.58 18.77 12.9L18.28 13.33V13.37L18.92 13.26H21.1V14H17.12V13.71C17.2667 13.5567 17.4433 13.3667 17.65 13.14C17.8567 12.9133 18.07 12.6633 18.29 12.39C18.5167 12.11 18.7367 11.8167 18.95 11.51C19.17 11.1967 19.3667 10.88 19.54 10.56C19.72 10.24 19.8633 9.92333 19.97 9.61C20.0767 9.29667 20.13 9 20.13 8.72C20.13 8.39333 20.0367 8.12333 19.85 7.91C19.6633 7.69 19.38 7.58 19 7.58C18.7467 7.58 18.5 7.63333 18.26 7.74C18.02 7.84 17.8133 7.95667 17.64 8.09L17.31 7.52C17.5433 7.32 17.82 7.16333 18.14 7.05C18.46 6.93667 18.8033 6.88 19.17 6.88C19.4567 6.88 19.71 6.92333 19.93 7.01C20.15 7.09 20.3367 7.20667 20.49 7.36C20.6433 7.51333 20.76 7.69667 20.84 7.91C20.92 8.11667 20.96 8.34333 20.96 8.59Z" fill="white"/>
</svg>
